<svg xmlns="http://www.w3.org/2000/svg" xmlns:xlink="http://www.w3.org/1999/xlink" viewBox="0 0 742.93 742.93"><defs><style>.cls-1{fill:url(#linear-gradient)}.cls-2{fill:#fff}.cls-3{fill:#0fb4c6}.cls-4{fill:#ff9b00}</style><linearGradient id="linear-gradient" x1="746.19" x2="143.59" y1="783.83" y2="120.7" gradientUnits="userSpaceOnUse"><stop offset="0" stop-color="#1f4f5e"/><stop offset="1" stop-color="#003b48"/></linearGradient></defs><g id="Laag_2" data-name="Laag 2"><g id="Layer_2" data-name="Layer 2"><rect width="742.93" height="742.93" class="cls-1" rx="84.99"/><path d="M78.75,217.05h45.39a111.51,111.51,0,0,1,36.12,5.59,85.52,85.52,0,0,1,28.07,15.43,70,70,0,0,1,0,106.89,85.34,85.34,0,0,1-28.07,15.43,111.51,111.51,0,0,1-36.12,5.6H78.75Zm47.63,119.86a62.65,62.65,0,0,0,20.35-3.13,45.89,45.89,0,0,0,15.77-8.94,39.16,39.16,0,0,0,10.17-14.2,52.87,52.87,0,0,0,0-38.25,39.16,39.16,0,0,0-10.17-14.2,46.22,46.22,0,0,0-15.77-8.94,62.65,62.65,0,0,0-20.35-3.13h-11v90.79Z" class="cls-2"/><path d="M343.48,260.27a42.42,42.42,0,0,1-6.12,26.78Q330,298.91,315.53,306l53.81,54.18-45,3.87-45.19-48-6.69.57,4.42,51.47-36.54,3.14L227.59,222.86l47.23-4.06a108.16,108.16,0,0,1,25.88.7,64.2,64.2,0,0,1,21.24,6.93,42,42,0,0,1,14.85,13.42Q342.45,248.24,343.48,260.27ZM308.33,264q-.85-10-9.07-14.15T277,246.9l-10.47.89,3.58,41.67,8.91-.76q14.7-1.27,22.45-7.77T308.33,264Z" class="cls-3"/><path d="M414.42,366H377.74V217.05h36.68Z" class="cls-2"/><path d="M464.17,407.47a88.31,88.31,0,0,1-14.31,37.12,115.26,115.26,0,0,1-15.43,18.23l-25.27-19.9a96.29,96.29,0,0,0,14.53-22.82,64,64,0,0,0,5.15-26.16V274.52h36.67V387.9A139.09,139.09,0,0,1,464.17,407.47Z" class="cls-4"/><path d="M479,319.69V170.75h93.7v29.08h-57v33.76H570v29.08H515.69v57Z" class="cls-3"/><path d="M287.11,537.29H246L195.65,388.35h38.46l32.43,113.38L299,388.35h38.46Z" class="cls-3"/><path d="M458.35,444.34l32.5,17L446.7,545.75q-12.24,23.38-33.94,28.94t-48.07-8.23q-26.35-13.79-34.17-34.78t4.41-44.38l44.16-84.42,32.49,17-44.67,85.41q-5.91,11.29-3.07,20.35t14.33,15.07q11.49,6,20.55,3.18t15-14.13Z" class="cls-4"/><path d="M544.2,499.39H507.52V350.45H544.2Z" class="cls-2"/><path d="M609.39,402.88V522.75h54.79v29.07H572.71V402.88Z" class="cls-3"/></g></g></svg>