<?xml version="1.0" standalone="no"?>
<!DOCTYPE svg PUBLIC "-//W3C//DTD SVG 20010904//EN"
 "http://www.w3.org/TR/2001/REC-SVG-20010904/DTD/svg10.dtd">
<svg version="1.0" xmlns="http://www.w3.org/2000/svg"
 width="700.000000pt" height="700.000000pt" viewBox="0 0 700.000000 700.000000"
 preserveAspectRatio="xMidYMid meet">
<metadata>
Created by potrace 1.14, written by Peter Selinger 2001-2017
</metadata>
<g transform="translate(0.000000,700.000000) scale(0.100000,-0.100000)"
fill="#000000" stroke="none">
<path d="M650 6985 c-309 -63 -547 -287 -627 -590 -17 -67 -18 -181 -18 -2895
0 -2607 1 -2830 17 -2885 60 -216 171 -372 345 -485 73 -48 133 -75 243 -108
51 -16 268 -17 2840 -20 2021 -2 2807 0 2864 8 348 50 626 328 676 676 8 57
10 843 8 2864 -3 2572 -4 2789 -20 2840 -67 221 -173 368 -345 480 -73 48
-133 75 -243 108 -51 16 -267 17 -2865 19 -2292 1 -2822 -1 -2875 -12z m3255
-2517 c3 -271 5 -587 3 -703 l-3 -210 -172 -3 -173 -2 0 705 0 705 169 0 169
0 7 -492z m-2518 466 c258 -53 450 -188 547 -385 58 -117 80 -220 72 -335 -12
-171 -75 -305 -200 -429 -97 -97 -216 -161 -371 -202 -95 -25 -116 -26 -397
-31 l-298 -4 0 701 0 701 285 0 c221 0 303 -4 362 -16z m2991 -1156 c-4 -575
-6 -639 -22 -698 -40 -142 -133 -306 -225 -394 l-40 -39 -63 48 c-35 27 -86
68 -115 91 l-52 42 40 53 c52 69 114 199 128 267 7 35 11 260 11 657 l0 605
170 0 171 0 -3 -632z m750 -780 l-3 -703 -170 0 -170 0 -3 703 -2 702 175 0
175 0 -2 -702z m-1259 46 c2 -2 -97 -195 -220 -431 -201 -384 -223 -433 -227
-484 -2 -31 1 -73 7 -92 28 -83 166 -170 270 -170 64 0 102 16 148 65 19 19
125 211 249 448 119 228 219 418 223 421 9 10 296 -145 294 -158 -4 -19 -425
-817 -453 -858 -105 -153 -286 -232 -469 -204 -220 33 -467 194 -548 357 -57
114 -67 249 -27 367 9 28 116 240 237 472 l220 423 146 -76 c80 -42 148 -78
150 -80z"/>
<path d="M1090 4254 l0 -426 123 4 c134 5 195 23 281 79 125 83 190 261 157
431 -18 89 -42 140 -98 199 -85 91 -214 139 -375 139 l-88 0 0 -426z"/>
</g>
</svg>
